<svg width="32" height="30" viewBox="0 0 32 30" fill="none" xmlns="http://www.w3.org/2000/svg">
<mask id="path-1-inside-1_1778_309" fill="white">
<path d="M4.40506 18.7577C4.45601 18.8074 4.51645 18.8467 4.58289 18.8733C4.64933 18.9 4.72048 18.9135 4.79225 18.9131H27.1515C27.2232 18.9135 27.2944 18.9 27.3608 18.8733C27.4273 18.8467 27.4877 18.8074 27.5387 18.7577L29.72 16.6145C29.7969 16.5395 29.8494 16.4438 29.8707 16.3395C29.892 16.2351 29.8812 16.1269 29.8397 16.0286C29.7981 15.9303 29.7277 15.8464 29.6375 15.7876C29.5472 15.7287 29.4412 15.6977 29.3328 15.6983H27.4241V14.6267C27.4205 11.958 26.4517 9.37755 24.6905 7.34592C22.9294 5.31429 20.4906 3.96379 17.8097 3.53554L18.006 1.96028C18.0339 1.73358 18.0123 1.50364 17.9427 1.28578C17.873 1.06791 17.757 0.867129 17.6022 0.696792C17.4474 0.526455 17.2574 0.390478 17.0449 0.297916C16.8325 0.205355 16.6024 0.158334 16.37 0.159985H15.5519C15.3195 0.158334 15.0894 0.205355 14.877 0.297916C14.6645 0.390478 14.4745 0.526455 14.3197 0.696792C14.1649 0.867129 14.0489 1.06791 13.9792 1.28578C13.9096 1.50364 13.888 1.73358 13.9159 1.96028L14.1122 3.53554C11.4353 3.96837 9.00163 5.32084 7.24487 7.35203C5.48811 9.38321 4.52233 11.9612 4.51958 14.6267V15.6983H2.61087C2.50255 15.6977 2.39649 15.7287 2.30623 15.7876C2.21596 15.8464 2.14557 15.9303 2.10404 16.0286C2.0625 16.1269 2.05169 16.2351 2.073 16.3395C2.09431 16.4438 2.14676 16.5395 2.22367 16.6145L4.40506 18.7577ZM15.023 1.83169C15.0137 1.75612 15.0208 1.67948 15.0441 1.60686C15.0673 1.53423 15.106 1.46731 15.1576 1.41053C15.2092 1.35375 15.2725 1.30842 15.3433 1.27757C15.4141 1.24671 15.4908 1.23104 15.5683 1.23159H16.3863C16.4638 1.23104 16.5405 1.24671 16.6113 1.27757C16.6821 1.30842 16.7455 1.35375 16.7971 1.41053C16.8487 1.46731 16.8873 1.53423 16.9106 1.60686C16.9338 1.67948 16.941 1.75612 16.9317 1.83169L16.7408 3.4391C16.2366 3.39089 15.7289 3.39089 15.2247 3.4391L15.023 1.83169ZM5.61027 14.6267C5.61027 11.9267 6.70194 9.33731 8.64511 7.42814C10.5883 5.51897 13.2238 4.44641 15.9719 4.44641C18.7199 4.44641 21.3554 5.51897 23.2986 7.42814C25.2418 9.33731 26.3334 11.9267 26.3334 14.6267V15.6983H5.61027V14.6267ZM28.0186 16.7699L26.9279 17.8415H5.01584L3.92515 16.7699H28.0186Z"/>
</mask>
<path d="M4.40506 18.7577C4.45601 18.8074 4.51645 18.8467 4.58289 18.8733C4.64933 18.9 4.72048 18.9135 4.79225 18.9131H27.1515C27.2232 18.9135 27.2944 18.9 27.3608 18.8733C27.4273 18.8467 27.4877 18.8074 27.5387 18.7577L29.72 16.6145C29.7969 16.5395 29.8494 16.4438 29.8707 16.3395C29.892 16.2351 29.8812 16.1269 29.8397 16.0286C29.7981 15.9303 29.7277 15.8464 29.6375 15.7876C29.5472 15.7287 29.4412 15.6977 29.3328 15.6983H27.4241V14.6267C27.4205 11.958 26.4517 9.37755 24.6905 7.34592C22.9294 5.31429 20.4906 3.96379 17.8097 3.53554L18.006 1.96028C18.0339 1.73358 18.0123 1.50364 17.9427 1.28578C17.873 1.06791 17.757 0.867129 17.6022 0.696792C17.4474 0.526455 17.2574 0.390478 17.0449 0.297916C16.8325 0.205355 16.6024 0.158334 16.37 0.159985H15.5519C15.3195 0.158334 15.0894 0.205355 14.877 0.297916C14.6645 0.390478 14.4745 0.526455 14.3197 0.696792C14.1649 0.867129 14.0489 1.06791 13.9792 1.28578C13.9096 1.50364 13.888 1.73358 13.9159 1.96028L14.1122 3.53554C11.4353 3.96837 9.00163 5.32084 7.24487 7.35203C5.48811 9.38321 4.52233 11.9612 4.51958 14.6267V15.6983H2.61087C2.50255 15.6977 2.39649 15.7287 2.30623 15.7876C2.21596 15.8464 2.14557 15.9303 2.10404 16.0286C2.0625 16.1269 2.05169 16.2351 2.073 16.3395C2.09431 16.4438 2.14676 16.5395 2.22367 16.6145L4.40506 18.7577ZM15.023 1.83169C15.0137 1.75612 15.0208 1.67948 15.0441 1.60686C15.0673 1.53423 15.106 1.46731 15.1576 1.41053C15.2092 1.35375 15.2725 1.30842 15.3433 1.27757C15.4141 1.24671 15.4908 1.23104 15.5683 1.23159H16.3863C16.4638 1.23104 16.5405 1.24671 16.6113 1.27757C16.6821 1.30842 16.7455 1.35375 16.7971 1.41053C16.8487 1.46731 16.8873 1.53423 16.9106 1.60686C16.9338 1.67948 16.941 1.75612 16.9317 1.83169L16.7408 3.4391C16.2366 3.39089 15.7289 3.39089 15.2247 3.4391L15.023 1.83169ZM5.61027 14.6267C5.61027 11.9267 6.70194 9.33731 8.64511 7.42814C10.5883 5.51897 13.2238 4.44641 15.9719 4.44641C18.7199 4.44641 21.3554 5.51897 23.2986 7.42814C25.2418 9.33731 26.3334 11.9267 26.3334 14.6267V15.6983H5.61027V14.6267ZM28.0186 16.7699L26.9279 17.8415H5.01584L3.92515 16.7699H28.0186Z" fill="#FFBA08"/>
<path d="M4.40506 18.7577L3.00337 20.1844L3.00921 20.19L4.40506 18.7577ZM4.79225 18.9131V16.9131L4.78089 16.9131L4.79225 18.9131ZM27.1515 18.9131L27.1628 16.9131H27.1515V18.9131ZM27.5387 18.7577L28.9345 20.1901L28.9403 20.1843L27.5387 18.7577ZM29.72 16.6145L28.3242 15.1821L28.3184 15.1879L29.72 16.6145ZM29.3328 15.6983V17.6983L29.3443 17.6982L29.3328 15.6983ZM27.4241 15.6983H25.4241V17.6983H27.4241V15.6983ZM27.4241 14.6267H29.4241L29.4241 14.624L27.4241 14.6267ZM17.8097 3.53554L15.825 3.2882L15.586 5.2057L17.4942 5.51051L17.8097 3.53554ZM18.006 1.96028L19.9906 2.20763L19.991 2.20455L18.006 1.96028ZM16.37 0.159985V2.15998H16.3771L16.3842 2.15993L16.37 0.159985ZM15.5519 0.159985L15.5377 2.15993L15.5448 2.15998H15.5519V0.159985ZM13.9159 1.96028L11.9309 2.20455L11.9313 2.20763L13.9159 1.96028ZM14.1122 3.53554L14.4314 5.5099L16.3354 5.20206L16.0969 3.2882L14.1122 3.53554ZM4.51958 14.6267L2.51958 14.6246V14.6267H4.51958ZM4.51958 15.6983V17.6983H6.51958V15.6983H4.51958ZM2.61087 15.6983L2.59944 17.6983H2.61087V15.6983ZM2.22367 16.6145L3.62536 15.1878L3.61945 15.1821L2.22367 16.6145ZM15.023 1.83169L13.0379 2.07596L13.0385 2.08079L15.023 1.83169ZM15.5683 1.23159L15.5541 3.23154L15.5612 3.23159H15.5683V1.23159ZM16.3863 1.23159V3.23159H16.3934L16.4005 3.23154L16.3863 1.23159ZM16.9317 1.83169L14.9466 1.58742L14.9456 1.59586L16.9317 1.83169ZM16.7408 3.4391L16.5504 5.43002L18.4963 5.61608L18.7268 3.67493L16.7408 3.4391ZM15.2247 3.4391L13.2403 3.6882L13.4822 5.61484L15.4151 5.43002L15.2247 3.4391ZM5.61027 14.6267H3.61027H5.61027ZM15.9719 4.44641V2.44641V4.44641ZM26.3334 15.6983V17.6983H28.3334V15.6983H26.3334ZM5.61027 15.6983H3.61027V17.6983H5.61027V15.6983ZM28.0186 16.7699L29.4202 18.1965L32.9079 14.7699H28.0186V16.7699ZM26.9279 17.8415V19.8415H27.746L28.3295 19.2681L26.9279 17.8415ZM5.01584 17.8415L3.61417 19.2681L4.19774 19.8415H5.01584V17.8415ZM3.92515 16.7699V14.7699H-0.964198L2.52347 18.1965L3.92515 16.7699ZM3.00921 20.19C3.24857 20.4233 3.53053 20.606 3.83802 20.7294L5.32776 17.0172C5.50236 17.0873 5.66345 17.1914 5.80091 17.3254L3.00921 20.19ZM3.83802 20.7294C4.14545 20.8528 4.47348 20.9149 4.80361 20.9131L4.78089 16.9131C4.96748 16.9121 5.15322 16.9472 5.32776 17.0172L3.83802 20.7294ZM4.79225 20.9131H27.1515V16.9131H4.79225V20.9131ZM27.1401 20.9131C27.4702 20.9149 27.7983 20.8528 28.1057 20.7294L26.616 17.0172C26.7905 16.9472 26.9762 16.9121 27.1628 16.9131L27.1401 20.9131ZM28.1057 20.7294C28.4132 20.606 28.6951 20.4233 28.9345 20.19L26.1428 17.3254C26.2802 17.1914 26.4413 17.0873 26.616 17.0172L28.1057 20.7294ZM28.9403 20.1843L31.1217 18.0411L28.3184 15.1879L26.137 17.3311L28.9403 20.1843ZM31.1158 18.0469C31.4773 17.6946 31.728 17.2402 31.8303 16.7396L27.9111 15.9393C27.9708 15.6474 28.1166 15.3845 28.3243 15.1821L31.1158 18.0469ZM31.8303 16.7396C31.9326 16.2387 31.8804 15.7196 31.6819 15.2501L27.9974 16.8071C27.8821 16.5342 27.8515 16.2315 27.9111 15.9393L31.8303 16.7396ZM31.6819 15.2501C31.4837 14.7809 31.1502 14.3862 30.7295 14.112L28.5454 17.4631C28.3053 17.3066 28.1126 17.0797 27.9974 16.8071L31.6819 15.2501ZM30.7295 14.112C30.3093 13.8381 29.8192 13.6955 29.3214 13.6983L29.3443 17.6982C29.0632 17.6998 28.7852 17.6193 28.5454 17.4631L30.7295 14.112ZM29.3328 13.6983H27.4241V17.6983H29.3328V13.6983ZM29.4241 15.6983V14.6267H25.4241V15.6983H29.4241ZM29.4241 14.624C29.4199 11.4711 28.2749 8.42746 26.2018 6.0359L23.1793 8.65595C24.6284 10.3276 25.4212 12.445 25.4241 14.6294L29.4241 14.624ZM26.2018 6.0359C24.1293 3.64516 21.2655 2.06221 18.1251 1.56058L17.4942 5.51051C19.7157 5.86537 21.7295 6.98343 23.1793 8.65595L26.2018 6.0359ZM19.7943 3.78289L19.9906 2.20763L16.0214 1.71294L15.825 3.2882L19.7943 3.78289ZM19.991 2.20455C20.0543 1.69063 20.0052 1.16964 19.8477 0.676895L16.0376 1.89466C16.0194 1.83764 16.0135 1.77653 16.021 1.71602L19.991 2.20455ZM19.8477 0.676895C19.6903 0.184241 19.4286 -0.267221 19.0823 -0.648286L16.122 2.04187C16.0853 2.00148 16.0558 1.95159 16.0376 1.89466L19.8477 0.676895ZM19.0823 -0.648286C18.7361 -1.02924 18.3134 -1.33102 17.8437 -1.53564L16.2462 2.13148C16.2014 2.11198 16.1587 2.08215 16.122 2.04187L19.0823 -0.648286ZM17.8437 -1.53564C17.3741 -1.74023 16.867 -1.8436 16.3558 -1.83996L16.3842 2.15993C16.3378 2.16026 16.2908 2.15094 16.2462 2.13148L17.8437 -1.53564ZM16.37 -1.84002H15.5519V2.15998H16.37V-1.84002ZM15.5661 -1.83996C15.0549 -1.8436 14.5478 -1.74023 14.0782 -1.53564L15.6757 2.13148C15.6311 2.15094 15.5841 2.16026 15.5377 2.15993L15.5661 -1.83996ZM14.0782 -1.53564C13.6085 -1.33102 13.1858 -1.02924 12.8396 -0.648286L15.7999 2.04187C15.7632 2.08215 15.7205 2.11198 15.6757 2.13148L14.0782 -1.53564ZM12.8396 -0.648286C12.4933 -0.267221 12.2316 0.184241 12.0742 0.676895L15.8843 1.89466C15.8661 1.95159 15.8366 2.00148 15.7999 2.04187L12.8396 -0.648286ZM12.0742 0.676895C11.9167 1.16964 11.8676 1.69062 11.9309 2.20455L15.9009 1.71602C15.9084 1.77654 15.9025 1.83764 15.8843 1.89466L12.0742 0.676895ZM11.9313 2.20763L12.1276 3.78289L16.0969 3.2882L15.9005 1.71294L11.9313 2.20763ZM13.793 1.56118C10.6573 2.06818 7.79947 3.65346 5.73216 6.0437L8.75757 8.66035C10.2038 6.98823 12.2132 5.86856 14.4314 5.5099L13.793 1.56118ZM5.73216 6.0437C3.66415 8.43476 2.52283 11.4754 2.51958 14.6246L6.51958 14.6287C6.52183 12.447 7.31208 10.3317 8.75757 8.66035L5.73216 6.0437ZM2.51958 14.6267V15.6983H6.51958V14.6267H2.51958ZM4.51958 13.6983H2.61087V17.6983H4.51958V13.6983ZM2.62229 13.6983C2.12454 13.6955 1.63443 13.8381 1.21418 14.112L3.39828 17.4631C3.15856 17.6193 2.88055 17.6998 2.59944 17.6982L2.62229 13.6983ZM1.21418 14.112C0.79353 14.3862 0.460045 14.7809 0.261787 15.2501L3.94629 16.8071C3.8311 17.0797 3.63839 17.3066 3.39828 17.4631L1.21418 14.112ZM0.261787 15.2501C0.0633575 15.7196 0.0111585 16.2387 0.113435 16.7396L4.03257 15.9393C4.09223 16.2315 4.06164 16.5342 3.94629 16.8071L0.261787 15.2501ZM0.113435 16.7396C0.215664 17.2402 0.466385 17.6946 0.827888 18.0469L3.61945 15.1821C3.82713 15.3845 3.97295 15.6474 4.03257 15.9393L0.113435 16.7396ZM0.821994 18.0411L3.00338 20.1843L5.80673 17.3311L3.62535 15.1879L0.821994 18.0411ZM17.008 1.58743C17.034 1.79907 17.0138 2.01347 16.9491 2.21574L13.139 0.997972C13.0279 1.34548 12.9933 1.71317 13.0379 2.07595L17.008 1.58743ZM16.9491 2.21574C16.8845 2.4179 16.7776 2.60165 16.6377 2.7556L13.6774 0.0654486C13.4343 0.33296 13.25 0.650566 13.139 0.997972L16.9491 2.21574ZM16.6377 2.7556C16.4979 2.90945 16.3285 3.02993 16.1421 3.11113L14.5445 -0.555993C14.2165 -0.413082 13.9204 -0.201955 13.6774 0.0654486L16.6377 2.7556ZM16.1421 3.11113C15.9558 3.1923 15.7554 3.23297 15.5541 3.23154L15.5825 -0.768359C15.2262 -0.77089 14.8725 -0.698869 14.5445 -0.555993L16.1421 3.11113ZM15.5683 3.23159H16.3863V-0.768409H15.5683V3.23159ZM16.4005 3.23154C16.1992 3.23297 15.9988 3.1923 15.8125 3.11113L17.4101 -0.555993C17.0821 -0.698869 16.7284 -0.77089 16.3721 -0.768359L16.4005 3.23154ZM15.8125 3.11113C15.6261 3.02993 15.4567 2.90946 15.3169 2.7556L18.2772 0.0654486C18.0342 -0.201963 17.7381 -0.413087 17.4101 -0.555993L15.8125 3.11113ZM15.3169 2.7556C15.177 2.60164 15.0701 2.41789 15.0055 2.21574L18.8156 0.997972C18.7046 0.650581 18.5203 0.332972 18.2772 0.0654486L15.3169 2.7556ZM15.0055 2.21574C14.9408 2.01347 14.9206 1.79907 14.9466 1.58743L18.9167 2.07595C18.9613 1.71317 18.9267 1.34548 18.8156 0.997972L15.0055 2.21574ZM14.9456 1.59586L14.7547 3.20327L18.7268 3.67493L18.9177 2.06752L14.9456 1.59586ZM16.9312 1.44818C16.3004 1.38786 15.6651 1.38786 15.0344 1.44818L15.4151 5.43002C15.7926 5.39392 16.1729 5.39392 16.5504 5.43002L16.9312 1.44818ZM17.2092 3.18999L17.0074 1.58259L13.0385 2.08079L13.2403 3.6882L17.2092 3.18999ZM7.61027 14.6267C7.61027 12.4686 8.48248 10.3917 10.0468 8.85478L7.24343 6.00149C4.92139 8.28291 3.61027 11.3848 3.61027 14.6267H7.61027ZM10.0468 8.85478C11.6123 7.31668 13.7429 6.44641 15.9719 6.44641V2.44641C12.7046 2.44641 9.56428 3.72126 7.24343 6.00149L10.0468 8.85478ZM15.9719 6.44641C18.2008 6.44641 20.3314 7.31668 21.8969 8.85478L24.7003 6.00149C22.3794 3.72126 19.2391 2.44641 15.9719 2.44641V6.44641ZM21.8969 8.85478C23.4612 10.3917 24.3334 12.4686 24.3334 14.6267H28.3334C28.3334 11.3848 27.0223 8.28291 24.7003 6.00149L21.8969 8.85478ZM24.3334 14.6267V15.6983H28.3334V14.6267H24.3334ZM26.3334 13.6983H5.61027V17.6983H26.3334V13.6983ZM7.61027 15.6983V14.6267H3.61027V15.6983H7.61027ZM26.6169 15.3432L25.5262 16.4148L28.3295 19.2681L29.4202 18.1965L26.6169 15.3432ZM26.9279 15.8415H5.01584V19.8415H26.9279V15.8415ZM6.41752 16.4148L5.32683 15.3432L2.52347 18.1965L3.61417 19.2681L6.41752 16.4148ZM3.92515 18.7699H28.0186V14.7699H3.92515V18.7699Z" fill="#FFBA08" mask="url(#path-1-inside-1_1778_309)"/>
<mask id="path-3-inside-2_1778_309" fill="white">
<path d="M10.5184 7.25402C8.72422 8.53616 7.45545 10.406 6.94092 12.5263C6.91785 12.5967 6.90985 12.671 6.91742 12.7445C6.92498 12.8181 6.94796 12.8893 6.9849 12.9537C7.02183 13.0181 7.07193 13.0742 7.13204 13.1187C7.19215 13.1631 7.26097 13.1949 7.33418 13.212C7.40738 13.229 7.48339 13.231 7.55741 13.2178C7.63143 13.2046 7.70188 13.1765 7.76431 13.1352C7.82674 13.094 7.87981 13.0405 7.92018 12.9781C7.96055 12.9157 7.98735 12.8458 7.99889 12.7728C8.45243 10.9004 9.57479 9.25017 11.1619 8.12202C11.2199 8.08051 11.269 8.02817 11.3064 7.96801C11.3439 7.90784 11.3689 7.84103 11.38 7.77137C11.3912 7.70171 11.3882 7.63059 11.3714 7.56204C11.3545 7.4935 11.3241 7.42889 11.2819 7.3719C11.2396 7.3149 11.1864 7.26664 11.1251 7.22987C11.0639 7.19311 10.9959 7.16855 10.925 7.1576C10.8541 7.14666 10.7817 7.14954 10.7119 7.16608C10.6422 7.18262 10.5764 7.2125 10.5184 7.25402ZM27.0915 20.5473C27.0462 20.4581 26.9766 20.3831 26.8904 20.3307C26.8042 20.2783 26.7048 20.2505 26.6034 20.2505C26.502 20.2505 26.4026 20.2783 26.3164 20.3307C26.2302 20.3831 26.1605 20.4581 26.1153 20.5473L24.8665 23.0281L22.0797 23.4246C21.9783 23.4381 21.8828 23.4795 21.8041 23.5439C21.7255 23.6083 21.6669 23.6931 21.635 23.7887C21.6032 23.8843 21.5993 23.9868 21.624 24.0844C21.6486 24.182 21.7007 24.2709 21.7743 24.3408L23.7921 26.275L23.3177 29.0023C23.2998 29.101 23.3105 29.2026 23.3486 29.2956C23.3866 29.3887 23.4504 29.4694 23.5328 29.5285C23.6152 29.5877 23.7128 29.623 23.8145 29.6303C23.9163 29.6377 24.0181 29.6169 24.1084 29.5702L26.6061 28.2789L29.0983 29.5702C29.1887 29.6169 29.2905 29.6377 29.3923 29.6303C29.494 29.623 29.5916 29.5877 29.674 29.5285C29.7564 29.4694 29.8202 29.3887 29.8582 29.2956C29.8963 29.2026 29.9069 29.101 29.8891 29.0023L29.4146 26.275L31.4324 24.3408C31.5061 24.2709 31.5582 24.182 31.5828 24.0844C31.6074 23.9868 31.6036 23.8843 31.5718 23.7887C31.5399 23.6931 31.4813 23.6083 31.4026 23.5439C31.324 23.4795 31.2285 23.4381 31.127 23.4246L28.3403 23.0281L27.0915 20.5473ZM28.4439 25.7017C28.3809 25.763 28.3341 25.8385 28.3075 25.9216C28.2809 26.0047 28.2753 26.0929 28.2912 26.1786L28.6294 28.1128L26.8788 27.1966C26.8006 27.1562 26.7135 27.1352 26.6252 27.1352C26.5369 27.1352 26.4498 27.1562 26.3716 27.1966L24.5992 28.1128L24.9374 26.1786C24.9533 26.0929 24.9477 26.0047 24.9211 25.9216C24.8945 25.8385 24.8476 25.763 24.7847 25.7017L23.3504 24.3301L25.33 24.0461C25.4168 24.0337 25.4994 24.001 25.5706 23.9506C25.6418 23.9003 25.6996 23.8337 25.739 23.7568L26.6279 21.994L27.4896 23.7353C27.529 23.8123 27.5868 23.8788 27.658 23.9292C27.7292 23.9796 27.8117 24.0123 27.8986 24.0247L29.8782 24.3086L28.4439 25.7017ZM2.52906 26.275L2.05461 29.0023C2.03676 29.101 2.04746 29.2026 2.08549 29.2956C2.12351 29.3887 2.18734 29.4694 2.26971 29.5285C2.35209 29.5877 2.4497 29.623 2.55147 29.6303C2.65323 29.6377 2.75505 29.6169 2.84536 29.5702L5.3376 28.2789L7.83529 29.5702C7.9256 29.6169 8.02742 29.6377 8.12919 29.6303C8.23095 29.623 8.32856 29.5877 8.41094 29.5285C8.49331 29.4694 8.55714 29.3887 8.59516 29.2956C8.63319 29.2026 8.64389 29.101 8.62604 29.0023L8.15159 26.275L10.1694 24.3408C10.243 24.2709 10.2951 24.182 10.3197 24.0844C10.3444 23.9868 10.3406 23.8843 10.3087 23.7887C10.2768 23.6931 10.2182 23.6083 10.1396 23.5439C10.0609 23.4795 9.96542 23.4381 9.86397 23.4246L7.07725 23.0281L5.82841 20.5473C5.78318 20.4581 5.71355 20.3831 5.62733 20.3307C5.54111 20.2783 5.44172 20.2505 5.34033 20.2505C5.23893 20.2505 5.13954 20.2783 5.05332 20.3307C4.9671 20.3831 4.89747 20.4581 4.85224 20.5473L3.6034 23.0281L0.816676 23.4246C0.715232 23.4381 0.619723 23.4795 0.541078 23.5439C0.462432 23.6083 0.403825 23.6931 0.371963 23.7887C0.3401 23.8843 0.336268 23.9868 0.360906 24.0844C0.385544 24.182 0.437657 24.2709 0.511281 24.3408L2.52906 26.275ZM4.04513 24.0461C4.13196 24.0337 4.21449 24.001 4.28569 23.9506C4.3569 23.9003 4.41468 23.8337 4.45414 23.7568L5.3376 21.994L6.22651 23.7353C6.26597 23.8123 6.32375 23.8788 6.39496 23.9292C6.46616 23.9796 6.54869 24.0123 6.63552 24.0247L8.61513 24.3086L7.18087 25.6803C7.11788 25.7416 7.07105 25.8171 7.04445 25.9001C7.01784 25.9832 7.01225 26.0715 7.02817 26.1571L7.36629 28.0914L5.61027 27.1966C5.53206 27.1562 5.44503 27.1352 5.35669 27.1352C5.26834 27.1352 5.18131 27.1562 5.1031 27.1966L3.31436 28.1128L3.65248 26.1786C3.6684 26.0929 3.66281 26.0047 3.6362 25.9216C3.6096 25.8385 3.56277 25.763 3.49978 25.7017L2.06552 24.3301L4.04513 24.0461ZM20.4982 23.4246L17.7061 23.0281L16.4627 20.5473C16.418 20.4567 16.3483 20.3803 16.2615 20.3268C16.1747 20.2734 16.0743 20.245 15.9719 20.245C15.8694 20.245 15.769 20.2734 15.6822 20.3268C15.5954 20.3803 15.5257 20.4567 15.481 20.5473L14.2377 23.0281L11.4455 23.4246C11.3445 23.4389 11.2496 23.4809 11.1717 23.5456C11.0938 23.6104 11.0359 23.6953 11.0046 23.7907C10.9734 23.8862 10.97 23.9883 10.9949 24.0856C11.0198 24.1828 11.072 24.2712 11.1455 24.3408L13.1633 26.275L12.6998 29.0023C12.6812 29.1017 12.6916 29.2043 12.7298 29.2981C12.768 29.392 12.8325 29.4733 12.9157 29.5327C12.999 29.5921 13.0977 29.6272 13.2003 29.6338C13.303 29.6404 13.4055 29.6184 13.496 29.5702L15.9719 28.2789L18.4641 29.5702C18.5541 29.6139 18.6546 29.6324 18.7545 29.6237C18.8545 29.6149 18.9501 29.5792 19.0307 29.5204C19.1113 29.4617 19.1739 29.3823 19.2115 29.2908C19.2492 29.1994 19.2604 29.0995 19.2439 29.0023L18.764 26.275L20.7818 24.3408C20.8551 24.2723 20.9075 24.1851 20.9333 24.0891C20.959 23.993 20.9571 23.8918 20.9276 23.7967C20.8982 23.7017 20.8425 23.6165 20.7667 23.5508C20.6908 23.4851 20.5979 23.4414 20.4982 23.4246ZM17.8151 25.7017C17.7512 25.7625 17.7033 25.8377 17.6758 25.9208C17.6482 26.004 17.6417 26.0925 17.657 26.1786L17.9951 28.1128L16.2282 27.1966C16.1493 27.1553 16.0612 27.1337 15.9719 27.1337C15.8825 27.1337 15.7944 27.1553 15.7155 27.1966L13.9486 28.1128L14.2867 26.1786C14.302 26.0925 14.2955 26.004 14.268 25.9208C14.2404 25.8377 14.1925 25.7625 14.1286 25.7017L12.6998 24.3301L14.6794 24.0461C14.7672 24.0346 14.8508 24.0022 14.923 23.9518C14.9952 23.9014 15.0539 23.8344 15.0938 23.7568L15.9719 21.994L16.8553 23.7353C16.8953 23.813 16.9539 23.8799 17.0261 23.9303C17.0983 23.9808 17.182 24.0131 17.2698 24.0247L19.2494 24.3086L17.8151 25.7017Z"/>
</mask>
<path d="M10.5184 7.25402C8.72422 8.53616 7.45545 10.406 6.94092 12.5263C6.91785 12.5967 6.90985 12.671 6.91742 12.7445C6.92498 12.8181 6.94796 12.8893 6.9849 12.9537C7.02183 13.0181 7.07193 13.0742 7.13204 13.1187C7.19215 13.1631 7.26097 13.1949 7.33418 13.212C7.40738 13.229 7.48339 13.231 7.55741 13.2178C7.63143 13.2046 7.70188 13.1765 7.76431 13.1352C7.82674 13.094 7.87981 13.0405 7.92018 12.9781C7.96055 12.9157 7.98735 12.8458 7.99889 12.7728C8.45243 10.9004 9.57479 9.25017 11.1619 8.12202C11.2199 8.08051 11.269 8.02817 11.3064 7.96801C11.3439 7.90784 11.3689 7.84103 11.38 7.77137C11.3912 7.70171 11.3882 7.63059 11.3714 7.56204C11.3545 7.4935 11.3241 7.42889 11.2819 7.3719C11.2396 7.3149 11.1864 7.26664 11.1251 7.22987C11.0639 7.19311 10.9959 7.16855 10.925 7.1576C10.8541 7.14666 10.7817 7.14954 10.7119 7.16608C10.6422 7.18262 10.5764 7.2125 10.5184 7.25402ZM27.0915 20.5473C27.0462 20.4581 26.9766 20.3831 26.8904 20.3307C26.8042 20.2783 26.7048 20.2505 26.6034 20.2505C26.502 20.2505 26.4026 20.2783 26.3164 20.3307C26.2302 20.3831 26.1605 20.4581 26.1153 20.5473L24.8665 23.0281L22.0797 23.4246C21.9783 23.4381 21.8828 23.4795 21.8041 23.5439C21.7255 23.6083 21.6669 23.6931 21.635 23.7887C21.6032 23.8843 21.5993 23.9868 21.624 24.0844C21.6486 24.182 21.7007 24.2709 21.7743 24.3408L23.7921 26.275L23.3177 29.0023C23.2998 29.101 23.3105 29.2026 23.3486 29.2956C23.3866 29.3887 23.4504 29.4694 23.5328 29.5285C23.6152 29.5877 23.7128 29.623 23.8145 29.6303C23.9163 29.6377 24.0181 29.6169 24.1084 29.5702L26.6061 28.2789L29.0983 29.5702C29.1887 29.6169 29.2905 29.6377 29.3923 29.6303C29.494 29.623 29.5916 29.5877 29.674 29.5285C29.7564 29.4694 29.8202 29.3887 29.8582 29.2956C29.8963 29.2026 29.9069 29.101 29.8891 29.0023L29.4146 26.275L31.4324 24.3408C31.5061 24.2709 31.5582 24.182 31.5828 24.0844C31.6074 23.9868 31.6036 23.8843 31.5718 23.7887C31.5399 23.6931 31.4813 23.6083 31.4026 23.5439C31.324 23.4795 31.2285 23.4381 31.127 23.4246L28.3403 23.0281L27.0915 20.5473ZM28.4439 25.7017C28.3809 25.763 28.3341 25.8385 28.3075 25.9216C28.2809 26.0047 28.2753 26.0929 28.2912 26.1786L28.6294 28.1128L26.8788 27.1966C26.8006 27.1562 26.7135 27.1352 26.6252 27.1352C26.5369 27.1352 26.4498 27.1562 26.3716 27.1966L24.5992 28.1128L24.9374 26.1786C24.9533 26.0929 24.9477 26.0047 24.9211 25.9216C24.8945 25.8385 24.8476 25.763 24.7847 25.7017L23.3504 24.3301L25.33 24.0461C25.4168 24.0337 25.4994 24.001 25.5706 23.9506C25.6418 23.9003 25.6996 23.8337 25.739 23.7568L26.6279 21.994L27.4896 23.7353C27.529 23.8123 27.5868 23.8788 27.658 23.9292C27.7292 23.9796 27.8117 24.0123 27.8986 24.0247L29.8782 24.3086L28.4439 25.7017ZM2.52906 26.275L2.05461 29.0023C2.03676 29.101 2.04746 29.2026 2.08549 29.2956C2.12351 29.3887 2.18734 29.4694 2.26971 29.5285C2.35209 29.5877 2.4497 29.623 2.55147 29.6303C2.65323 29.6377 2.75505 29.6169 2.84536 29.5702L5.3376 28.2789L7.83529 29.5702C7.9256 29.6169 8.02742 29.6377 8.12919 29.6303C8.23095 29.623 8.32856 29.5877 8.41094 29.5285C8.49331 29.4694 8.55714 29.3887 8.59516 29.2956C8.63319 29.2026 8.64389 29.101 8.62604 29.0023L8.15159 26.275L10.1694 24.3408C10.243 24.2709 10.2951 24.182 10.3197 24.0844C10.3444 23.9868 10.3406 23.8843 10.3087 23.7887C10.2768 23.6931 10.2182 23.6083 10.1396 23.5439C10.0609 23.4795 9.96542 23.4381 9.86397 23.4246L7.07725 23.0281L5.82841 20.5473C5.78318 20.4581 5.71355 20.3831 5.62733 20.3307C5.54111 20.2783 5.44172 20.2505 5.34033 20.2505C5.23893 20.2505 5.13954 20.2783 5.05332 20.3307C4.9671 20.3831 4.89747 20.4581 4.85224 20.5473L3.6034 23.0281L0.816676 23.4246C0.715232 23.4381 0.619723 23.4795 0.541078 23.5439C0.462432 23.6083 0.403825 23.6931 0.371963 23.7887C0.3401 23.8843 0.336268 23.9868 0.360906 24.0844C0.385544 24.182 0.437657 24.2709 0.511281 24.3408L2.52906 26.275ZM4.04513 24.0461C4.13196 24.0337 4.21449 24.001 4.28569 23.9506C4.3569 23.9003 4.41468 23.8337 4.45414 23.7568L5.3376 21.994L6.22651 23.7353C6.26597 23.8123 6.32375 23.8788 6.39496 23.9292C6.46616 23.9796 6.54869 24.0123 6.63552 24.0247L8.61513 24.3086L7.18087 25.6803C7.11788 25.7416 7.07105 25.8171 7.04445 25.9001C7.01784 25.9832 7.01225 26.0715 7.02817 26.1571L7.36629 28.0914L5.61027 27.1966C5.53206 27.1562 5.44503 27.1352 5.35669 27.1352C5.26834 27.1352 5.18131 27.1562 5.1031 27.1966L3.31436 28.1128L3.65248 26.1786C3.6684 26.0929 3.66281 26.0047 3.6362 25.9216C3.6096 25.8385 3.56277 25.763 3.49978 25.7017L2.06552 24.3301L4.04513 24.0461ZM20.4982 23.4246L17.7061 23.0281L16.4627 20.5473C16.418 20.4567 16.3483 20.3803 16.2615 20.3268C16.1747 20.2734 16.0743 20.245 15.9719 20.245C15.8694 20.245 15.769 20.2734 15.6822 20.3268C15.5954 20.3803 15.5257 20.4567 15.481 20.5473L14.2377 23.0281L11.4455 23.4246C11.3445 23.4389 11.2496 23.4809 11.1717 23.5456C11.0938 23.6104 11.0359 23.6953 11.0046 23.7907C10.9734 23.8862 10.97 23.9883 10.9949 24.0856C11.0198 24.1828 11.072 24.2712 11.1455 24.3408L13.1633 26.275L12.6998 29.0023C12.6812 29.1017 12.6916 29.2043 12.7298 29.2981C12.768 29.392 12.8325 29.4733 12.9157 29.5327C12.999 29.5921 13.0977 29.6272 13.2003 29.6338C13.303 29.6404 13.4055 29.6184 13.496 29.5702L15.9719 28.2789L18.4641 29.5702C18.5541 29.6139 18.6546 29.6324 18.7545 29.6237C18.8545 29.6149 18.9501 29.5792 19.0307 29.5204C19.1113 29.4617 19.1739 29.3823 19.2115 29.2908C19.2492 29.1994 19.2604 29.0995 19.2439 29.0023L18.764 26.275L20.7818 24.3408C20.8551 24.2723 20.9075 24.1851 20.9333 24.0891C20.959 23.993 20.9571 23.8918 20.9276 23.7967C20.8982 23.7017 20.8425 23.6165 20.7667 23.5508C20.6908 23.4851 20.5979 23.4414 20.4982 23.4246ZM17.8151 25.7017C17.7512 25.7625 17.7033 25.8377 17.6758 25.9208C17.6482 26.004 17.6417 26.0925 17.657 26.1786L17.9951 28.1128L16.2282 27.1966C16.1493 27.1553 16.0612 27.1337 15.9719 27.1337C15.8825 27.1337 15.7944 27.1553 15.7155 27.1966L13.9486 28.1128L14.2867 26.1786C14.302 26.0925 14.2955 26.004 14.268 25.9208C14.2404 25.8377 14.1925 25.7625 14.1286 25.7017L12.6998 24.3301L14.6794 24.0461C14.7672 24.0346 14.8508 24.0022 14.923 23.9518C14.9952 23.9014 15.0539 23.8344 15.0938 23.7568L15.9719 21.994L16.8553 23.7353C16.8953 23.813 16.9539 23.8799 17.0261 23.9303C17.0983 23.9808 17.182 24.0131 17.2698 24.0247L19.2494 24.3086L17.8151 25.7017Z" fill="#FFBA08" stroke="#FFBA08" stroke-width="4" mask="url(#path-3-inside-2_1778_309)"/>
</svg>
